<?xml version="1.0" standalone="no"?>
<!DOCTYPE svg PUBLIC "-//W3C//DTD SVG 20010904//EN"
 "http://www.w3.org/TR/2001/REC-SVG-20010904/DTD/svg10.dtd">
<svg version="1.0" xmlns="http://www.w3.org/2000/svg"
 width="200.000000pt" height="200.000000pt" viewBox="0 0 200.000000 200.000000"
 preserveAspectRatio="xMidYMid meet">
<metadata>
Created by potrace 1.14, written by Peter Selinger 2001-2017
</metadata>
<g transform="translate(0.000000,200.000000) scale(0.100000,-0.100000)"
fill="#000000" stroke="none">
<path d="M470 1879 c-35 -14 -60 -39 -80 -79 -67 -135 93 -271 225 -190 86 53
87 192 2 252 -34 24 -109 33 -147 17z"/>
<path d="M1425 1876 c-60 -27 -102 -100 -91 -158 21 -111 140 -168 235 -112
36 21 71 82 73 126 1 45 -28 104 -65 130 -37 26 -111 33 -152 14z"/>
<path d="M369 1409 c-149 -152 -163 -179 -160 -308 2 -53 4 -116 6 -141 4 -57
16 -304 20 -390 4 -105 17 -332 20 -370 1 -19 3 -43 4 -52 1 -16 16 -18 166
-18 l165 0 1 33 c1 17 1 236 1 485 0 248 1 452 4 452 2 0 88 -84 192 -188 140
-139 195 -188 215 -190 22 -1 57 29 222 193 107 107 196 195 198 195 1 0 2
-219 2 -487 l0 -488 168 -3 c130 -2 167 0 168 10 2 58 9 212 14 298 3 58 8
152 10 210 3 58 7 134 9 170 3 36 8 133 12 217 6 145 5 154 -17 200 -29 61
-254 293 -283 293 -14 0 -103 -82 -261 -240 l-240 -240 -240 240 c-143 143
-247 240 -259 240 -10 0 -69 -51 -137 -121z"/>
</g>
</svg>
